<svg width="300" height="59" viewBox="0 0 300 59" fill="none" xmlns="http://www.w3.org/2000/svg">
<g clip-path="url(#clip0_4_12)">
<rect width="300" height="59" rx="29.5" fill="white"/>
<path d="M77.875 14.6875H68.7578V46H64V14.6875H55.0703V11.0781H77.875V14.6875ZM137.324 46L139.059 10.8672H144.215L154.293 38.3594L164.184 10.8672H169.34L171.191 46H166.551L165.332 17.8516L155.629 46H152.91L142.738 18.0625L141.707 46H137.324Z" fill="#8EE18E"/>
<path d="M94.8438 46H92.1016L91.5391 43.2402C91.1875 44.4473 90.5488 45.2559 89.623 45.666C88.709 46.0645 87.3672 46.2637 85.5977 46.2637C84.4258 46.2637 83.4648 46.1523 82.7148 45.9297C81.9648 45.6953 81.3672 45.3086 80.9219 44.7695C80.4766 44.2305 80.166 43.5742 79.9902 42.8008C79.8262 42.0156 79.7441 41.0078 79.7441 39.7773C79.7441 39.2266 79.8379 38.7344 80.0254 38.3008C80.2246 37.8672 80.4883 37.498 80.8164 37.1934C81.1562 36.8887 81.6016 36.625 82.1523 36.4023C82.7148 36.1797 83.2949 36.0039 83.8926 35.875C84.4902 35.7461 85.2109 35.6465 86.0547 35.5762C86.9102 35.4941 87.7422 35.4414 88.5508 35.418C89.3594 35.3945 90.3027 35.3828 91.3809 35.3828V30.1621C91.3809 29.5645 91.0996 29.1543 90.5371 28.9316C89.9746 28.6973 88.9727 28.5801 87.5312 28.5801C86.5234 28.5801 85.7676 28.6035 85.2637 28.6504C84.7598 28.6973 84.373 28.8379 84.1035 29.0723C83.8457 29.2949 83.6934 29.5176 83.6465 29.7402C83.6113 29.9629 83.5879 30.3789 83.5762 30.9883C83.5645 31.2109 83.5586 31.3867 83.5586 31.5156L80.8691 31.4102C80.8457 31.2227 80.834 30.9473 80.834 30.584C80.834 29.7988 80.9453 29.1367 81.168 28.5977C81.4023 28.0469 81.7012 27.6191 82.0645 27.3145C82.4277 26.998 82.9258 26.752 83.5586 26.5762C84.1914 26.4004 84.8184 26.2891 85.4395 26.2422C86.0605 26.1953 86.834 26.1719 87.7598 26.1719C89.166 26.1719 90.3086 26.2832 91.1875 26.5059C92.0664 26.7168 92.7871 27.1035 93.3496 27.666C93.9121 28.2285 94.2988 28.9492 94.5098 29.8281C94.7324 30.6953 94.8438 31.832 94.8438 33.2383V46ZM91.3809 40.4805V37.4746C89.0723 37.4746 87.2969 37.5625 86.0547 37.7383C84.8125 37.9141 83.9805 38.1602 83.5586 38.4766C83.1484 38.7812 82.9434 39.2148 82.9434 39.7773C82.9434 39.8008 82.9434 39.8359 82.9434 39.8828C82.9434 41.6641 83.0898 42.7715 83.3828 43.2051C83.6758 43.6387 84.5723 43.8555 86.0723 43.8555C87.3496 43.8555 88.3867 43.7031 89.1836 43.3984C89.9805 43.0938 90.5312 42.707 90.8359 42.2383C91.1523 41.7578 91.334 41.1719 91.3809 40.4805ZM114.127 40.6562C114.127 41.7812 114.004 42.707 113.758 43.4336C113.512 44.1484 113.102 44.7168 112.527 45.1387C111.965 45.5605 111.273 45.8535 110.453 46.0176C109.645 46.1816 108.619 46.2637 107.377 46.2637C106.65 46.2637 106.064 46.2578 105.619 46.2461C105.186 46.2344 104.682 46.2051 104.107 46.1582C103.533 46.1113 103.076 46.041 102.736 45.9473C102.396 45.8418 102.027 45.707 101.629 45.543C101.242 45.3672 100.938 45.1504 100.715 44.8926C100.492 44.623 100.281 44.3066 100.082 43.9434C99.8828 43.5801 99.7422 43.1523 99.6602 42.6602C99.5781 42.1562 99.5371 41.5879 99.5371 40.9551L102.262 40.252C102.367 41.5879 102.49 42.4316 102.631 42.7832C102.842 43.2637 103.281 43.5684 103.949 43.6973C104.453 43.8027 105.514 43.8555 107.131 43.8555C108.104 43.8555 108.824 43.8145 109.293 43.7324C109.773 43.6387 110.096 43.4688 110.26 43.2227C110.729 42.8359 110.963 41.5176 110.963 39.2676C110.963 38.9277 110.893 38.6406 110.752 38.4062C110.611 38.1602 110.441 37.9785 110.242 37.8613C110.043 37.7324 109.762 37.627 109.398 37.5449C109.047 37.4512 108.725 37.3926 108.432 37.3691C108.15 37.334 107.775 37.293 107.307 37.2461C106.838 37.1992 106.463 37.1582 106.182 37.123C105.326 37.0293 104.629 36.9414 104.09 36.8594C103.551 36.7656 103.006 36.6309 102.455 36.4551C101.904 36.2793 101.471 36.0625 101.154 35.8047C100.85 35.5469 100.568 35.2129 100.311 34.8027C100.053 34.3926 99.8711 33.9004 99.7656 33.3262C99.6602 32.752 99.6074 32.0664 99.6074 31.2695C99.6074 30.4258 99.6953 29.7109 99.8711 29.125C100.047 28.5391 100.305 28.0527 100.645 27.666C100.984 27.2793 101.447 26.9805 102.033 26.7695C102.631 26.5469 103.299 26.3945 104.037 26.3125C104.775 26.2188 105.678 26.1719 106.744 26.1719C107.412 26.1719 107.957 26.1836 108.379 26.207C108.812 26.2188 109.281 26.2598 109.785 26.3301C110.301 26.3887 110.717 26.4766 111.033 26.5938C111.35 26.7109 111.666 26.875 111.982 27.0859C112.311 27.2969 112.562 27.5605 112.738 27.877C112.914 28.1816 113.055 28.5566 113.16 29.002C113.277 29.4473 113.336 29.957 113.336 30.5312L110.98 31.252C110.934 30.7949 110.887 30.4375 110.84 30.1797C110.805 29.9102 110.717 29.6641 110.576 29.4414C110.436 29.2188 110.289 29.0605 110.137 28.9668C109.984 28.873 109.721 28.791 109.346 28.7207C108.982 28.6504 108.613 28.6094 108.238 28.5977C107.863 28.5859 107.324 28.5801 106.621 28.5801C105.121 28.5801 104.102 28.7324 103.562 29.0371C103.035 29.3301 102.771 29.8164 102.771 30.4961V32.2891C102.771 33.0625 103 33.5547 103.457 33.7656C103.926 33.9648 105.168 34.1934 107.184 34.4512C107.395 34.4863 107.553 34.5098 107.658 34.5215C108.467 34.6152 109.105 34.7031 109.574 34.7852C110.055 34.8672 110.559 34.9785 111.086 35.1191C111.613 35.248 112.012 35.4062 112.281 35.5938C112.562 35.7695 112.838 35.998 113.107 36.2793C113.389 36.5605 113.588 36.9062 113.705 37.3164C113.834 37.7266 113.934 38.2012 114.004 38.7402C114.086 39.2793 114.127 39.918 114.127 40.6562ZM134.113 46H130.299L123.584 35.9453L121.967 37.7559V46H118.486V19.8789L121.967 19.5977V32.2539C121.967 32.5469 121.961 33.0098 121.949 33.6426C121.949 34.2754 121.949 34.7324 121.949 35.0137C122.324 34.6152 122.857 34.0293 123.549 33.2559C124.252 32.4824 124.721 31.9727 124.955 31.7266L129.543 26.7168H133.48L126.221 34.4336L134.113 46ZM190.738 46H187.996L187.434 43.2402C187.082 44.4473 186.443 45.2559 185.518 45.666C184.604 46.0645 183.262 46.2637 181.492 46.2637C180.32 46.2637 179.359 46.1523 178.609 45.9297C177.859 45.6953 177.262 45.3086 176.816 44.7695C176.371 44.2305 176.061 43.5742 175.885 42.8008C175.721 42.0156 175.639 41.0078 175.639 39.7773C175.639 39.2266 175.732 38.7344 175.92 38.3008C176.119 37.8672 176.383 37.498 176.711 37.1934C177.051 36.8887 177.496 36.625 178.047 36.4023C178.609 36.1797 179.189 36.0039 179.787 35.875C180.385 35.7461 181.105 35.6465 181.949 35.5762C182.805 35.4941 183.637 35.4414 184.445 35.418C185.254 35.3945 186.197 35.3828 187.275 35.3828V30.1621C187.275 29.5645 186.994 29.1543 186.432 28.9316C185.869 28.6973 184.867 28.5801 183.426 28.5801C182.418 28.5801 181.662 28.6035 181.158 28.6504C180.654 28.6973 180.268 28.8379 179.998 29.0723C179.74 29.2949 179.588 29.5176 179.541 29.7402C179.506 29.9629 179.482 30.3789 179.471 30.9883C179.459 31.2109 179.453 31.3867 179.453 31.5156L176.764 31.4102C176.74 31.2227 176.729 30.9473 176.729 30.584C176.729 29.7988 176.84 29.1367 177.062 28.5977C177.297 28.0469 177.596 27.6191 177.959 27.3145C178.322 26.998 178.82 26.752 179.453 26.5762C180.086 26.4004 180.713 26.2891 181.334 26.2422C181.955 26.1953 182.729 26.1719 183.654 26.1719C185.061 26.1719 186.203 26.2832 187.082 26.5059C187.961 26.7168 188.682 27.1035 189.244 27.666C189.807 28.2285 190.193 28.9492 190.404 29.8281C190.627 30.6953 190.738 31.832 190.738 33.2383V46ZM187.275 40.4805V37.4746C184.967 37.4746 183.191 37.5625 181.949 37.7383C180.707 37.9141 179.875 38.1602 179.453 38.4766C179.043 38.7812 178.838 39.2148 178.838 39.7773C178.838 39.8008 178.838 39.8359 178.838 39.8828C178.838 41.6641 178.984 42.7715 179.277 43.2051C179.57 43.6387 180.467 43.8555 181.967 43.8555C183.244 43.8555 184.281 43.7031 185.078 43.3984C185.875 43.0938 186.426 42.707 186.73 42.2383C187.047 41.7578 187.229 41.1719 187.275 40.4805ZM203.693 43.5566L203.623 46.0176C202.639 46.1816 201.748 46.2637 200.951 46.2637C200.096 46.2637 199.387 46.1699 198.824 45.9824C198.273 45.7949 197.857 45.4961 197.576 45.0859C197.295 44.6758 197.102 44.2246 196.996 43.7324C196.891 43.2285 196.838 42.5898 196.838 41.8164V28.6855H194.219V26.7168H196.838V21.2324L200.283 20.9512V26.7168H203.834V28.6855H200.283V40.6387C200.283 41.9043 200.342 42.7246 200.459 43.0996C200.588 43.4746 200.928 43.6621 201.479 43.6621C202.018 43.6621 202.756 43.627 203.693 43.5566ZM223.328 36.0859C221.922 36.2266 221.049 36.3086 220.709 36.332H211.129C211.141 38.0312 211.188 39.8945 211.27 41.9219C211.328 42.707 211.662 43.2285 212.271 43.4863C212.893 43.7324 214.094 43.8555 215.875 43.8555C216.543 43.8555 217.117 43.832 217.598 43.7852C218.078 43.7266 218.465 43.6328 218.758 43.5039C219.062 43.3633 219.297 43.2344 219.461 43.1172C219.637 42.9883 219.766 42.7949 219.848 42.5371C219.93 42.2676 219.982 42.0449 220.006 41.8691C220.029 41.6816 220.053 41.4062 220.076 41.043C220.1 40.668 220.129 40.3633 220.164 40.1289L222.854 40.6211C222.83 41.4414 222.771 42.1387 222.678 42.7129C222.584 43.2754 222.426 43.7734 222.203 44.207C221.98 44.6406 221.717 44.9863 221.412 45.2441C221.107 45.4902 220.697 45.6953 220.182 45.8594C219.666 46.0234 219.098 46.1289 218.477 46.1758C217.855 46.2344 217.088 46.2637 216.174 46.2637C215.002 46.2637 213.982 46.1934 213.115 46.0527C212.248 45.9238 211.504 45.7598 210.883 45.5605C210.273 45.3613 209.77 45.0391 209.371 44.5938C208.973 44.1367 208.656 43.7031 208.422 43.293C208.199 42.8828 208.035 42.2793 207.93 41.4824C207.824 40.6855 207.754 39.9648 207.719 39.3203C207.695 38.6641 207.684 37.7617 207.684 36.6133C207.684 34.9961 207.701 33.7363 207.736 32.834C207.783 31.9316 207.9 31.0293 208.088 30.127C208.275 29.2129 208.527 28.5508 208.844 28.1406C209.16 27.7305 209.629 27.3496 210.25 26.998C210.871 26.6465 211.604 26.4238 212.447 26.3301C213.291 26.2246 214.363 26.1719 215.664 26.1719C216.566 26.1719 217.346 26.2012 218.002 26.2598C218.658 26.3066 219.262 26.4121 219.812 26.5762C220.363 26.7402 220.814 26.9277 221.166 27.1387C221.529 27.3496 221.846 27.6602 222.115 28.0703C222.396 28.4805 222.607 28.9082 222.748 29.3535C222.9 29.7871 223.023 30.3672 223.117 31.0938C223.211 31.8203 223.27 32.5586 223.293 33.3086C223.316 34.0469 223.328 34.9727 223.328 36.0859ZM211.146 34.4863H219.865C219.842 32.9863 219.783 31.6152 219.689 30.373C219.643 29.6582 219.332 29.1836 218.758 28.9492C218.195 28.7031 217.158 28.5801 215.646 28.5801C213.971 28.5801 212.91 28.6738 212.465 28.8613C212.266 28.9199 212.09 29.0254 211.938 29.1777C211.797 29.3184 211.68 29.5234 211.586 29.793C211.492 30.0625 211.416 30.3145 211.357 30.5488C211.311 30.7832 211.27 31.1113 211.234 31.5332C211.211 31.9434 211.193 32.2656 211.182 32.5C211.17 32.7227 211.158 33.0684 211.146 33.5371C211.146 34.0059 211.146 34.3223 211.146 34.4863ZM241.979 40.6562C241.979 41.7812 241.855 42.707 241.609 43.4336C241.363 44.1484 240.953 44.7168 240.379 45.1387C239.816 45.5605 239.125 45.8535 238.305 46.0176C237.496 46.1816 236.471 46.2637 235.229 46.2637C234.502 46.2637 233.916 46.2578 233.471 46.2461C233.037 46.2344 232.533 46.2051 231.959 46.1582C231.385 46.1113 230.928 46.041 230.588 45.9473C230.248 45.8418 229.879 45.707 229.48 45.543C229.094 45.3672 228.789 45.1504 228.566 44.8926C228.344 44.623 228.133 44.3066 227.934 43.9434C227.734 43.5801 227.594 43.1523 227.512 42.6602C227.43 42.1562 227.389 41.5879 227.389 40.9551L230.113 40.252C230.219 41.5879 230.342 42.4316 230.482 42.7832C230.693 43.2637 231.133 43.5684 231.801 43.6973C232.305 43.8027 233.365 43.8555 234.982 43.8555C235.955 43.8555 236.676 43.8145 237.145 43.7324C237.625 43.6387 237.947 43.4688 238.111 43.2227C238.58 42.8359 238.814 41.5176 238.814 39.2676C238.814 38.9277 238.744 38.6406 238.604 38.4062C238.463 38.1602 238.293 37.9785 238.094 37.8613C237.895 37.7324 237.613 37.627 237.25 37.5449C236.898 37.4512 236.576 37.3926 236.283 37.3691C236.002 37.334 235.627 37.293 235.158 37.2461C234.689 37.1992 234.314 37.1582 234.033 37.123C233.178 37.0293 232.48 36.9414 231.941 36.8594C231.402 36.7656 230.857 36.6309 230.307 36.4551C229.756 36.2793 229.322 36.0625 229.006 35.8047C228.701 35.5469 228.42 35.2129 228.162 34.8027C227.904 34.3926 227.723 33.9004 227.617 33.3262C227.512 32.752 227.459 32.0664 227.459 31.2695C227.459 30.4258 227.547 29.7109 227.723 29.125C227.898 28.5391 228.156 28.0527 228.496 27.666C228.836 27.2793 229.299 26.9805 229.885 26.7695C230.482 26.5469 231.15 26.3945 231.889 26.3125C232.627 26.2188 233.529 26.1719 234.596 26.1719C235.264 26.1719 235.809 26.1836 236.23 26.207C236.664 26.2188 237.133 26.2598 237.637 26.3301C238.152 26.3887 238.568 26.4766 238.885 26.5938C239.201 26.7109 239.518 26.875 239.834 27.0859C240.162 27.2969 240.414 27.5605 240.59 27.877C240.766 28.1816 240.906 28.5566 241.012 29.002C241.129 29.4473 241.188 29.957 241.188 30.5312L238.832 31.252C238.785 30.7949 238.738 30.4375 238.691 30.1797C238.656 29.9102 238.568 29.6641 238.428 29.4414C238.287 29.2188 238.141 29.0605 237.988 28.9668C237.836 28.873 237.572 28.791 237.197 28.7207C236.834 28.6504 236.465 28.6094 236.09 28.5977C235.715 28.5859 235.176 28.5801 234.473 28.5801C232.973 28.5801 231.953 28.7324 231.414 29.0371C230.887 29.3301 230.623 29.8164 230.623 30.4961V32.2891C230.623 33.0625 230.852 33.5547 231.309 33.7656C231.777 33.9648 233.02 34.1934 235.035 34.4512C235.246 34.4863 235.404 34.5098 235.51 34.5215C236.318 34.6152 236.957 34.7031 237.426 34.7852C237.906 34.8672 238.41 34.9785 238.938 35.1191C239.465 35.248 239.863 35.4062 240.133 35.5938C240.414 35.7695 240.689 35.998 240.959 36.2793C241.24 36.5605 241.439 36.9062 241.557 37.3164C241.686 37.7266 241.785 38.2012 241.855 38.7402C241.938 39.2793 241.979 39.918 241.979 40.6562Z" fill="black"/>
</g>
<defs>
<clipPath id="clip0_4_12">
<rect width="300" height="59" rx="29.5" fill="white"/>
</clipPath>
</defs>
</svg>
